# xmcd
#
# Track frame offsets:
#	150
#	14551
#	26151
#	38772
#	50145
#	63612
#	73384
#	85801
#	95718
#	109955
#	122352
#	137614
#	155709
#	166253
#	176979
#	192170
#	203094
#	214412
#	224509
#	233119
#	246974
#	258544
#	272176
#	286811
#
# Disc length: 4001 seconds
#
# Revision: 2
# Processed by: cddbd v1.5.2PL0 Copyright (c) Steve Scherf et al.
# Submitted via: EasyCDDAExtractor 10.0.3.1
#
DISCID=7f0f9f18
DTITLE=Tompall Glaser - The Best Of Tompall Glaser and The Glaser Brothers
DYEAR=1900
DGENRE=Country
TTITLE0=Streets Of Baltimore
TTITLE1=Gone, On The Other Hand
TTITLE2=Gentle On My Mind
TTITLE3=Through The Eyes Of Love
TTITLE4=The Moods Of Mary
TTITLE5=One Of These Days
TTITLE6=California Girl
TTITLE7=All That Keeps Ya Goin'
TTITLE8=Walk Unashamed
TTITLE9=Wicked California
TTITLE10=Gone Girl
TTITLE11=Faded Love
TTITLE12=Rings
TTITLE13=Sweet, Love Me Good Woman
TTITLE14=Ain't It All Worth Living For
TTITLE15=A Girl Like You
TTITLE16=Charlie
TTITLE17=Bad, Bad, Bad Cowboy
TTITLE18=Texas Law Sez
TTITLE19=Musical Chairs
TTITLE20=Put Another Log On The Fire
TTITLE21=The Wild Side Of Life
TTITLE22=T For Texas
TTITLE23=Lovin' Her Was Easier
EXTD=
EXTT0=
EXTT1=
EXTT2=
EXTT3=
EXTT4=
EXTT5=
EXTT6=
EXTT7=
EXTT8=
EXTT9=
EXTT10=
EXTT11=
EXTT12=
EXTT13=
EXTT14=
EXTT15=
EXTT16=
EXTT17=
EXTT18=
EXTT19=
EXTT20=
EXTT21=
EXTT22=
EXTT23=
PLAYORDER=
